<?xml version="1.0" standalone="no"?>
<!DOCTYPE svg PUBLIC "-//W3C//DTD SVG 20010904//EN"
 "http://www.w3.org/TR/2001/REC-SVG-20010904/DTD/svg10.dtd">
<svg version="1.0" xmlns="http://www.w3.org/2000/svg"
 width="650.000000pt" height="650.000000pt" viewBox="0 0 650.000000 650.000000"
 preserveAspectRatio="xMidYMid meet">

<g transform="translate(0.000000,650.000000) scale(0.100000,-0.100000)"
fill="#156A31" stroke="none">
<path d="M2900 5230 c-99 -10 -202 -30 -280 -57 l-55 -18 2 -65 c2 -67 35
-195 76 -297 21 -52 26 -58 55 -61 18 -2 32 -7 32 -12 0 -5 27 -67 61 -137
108 -226 189 -410 189 -427 0 -39 -21 -55 -103 -80 -313 -96 -481 -420 -423
-816 22 -145 62 -269 192 -595 147 -370 187 -521 188 -705 1 -124 -13 -160
-64 -160 -50 0 -62 32 -72 193 -12 208 -27 310 -59 419 -54 182 -136 344 -253
503 -48 65 -51 73 -51 130 -1 114 -82 215 -238 296 -139 72 -261 104 -457 119
-531 41 -1059 -208 -1206 -570 -81 -200 -39 -397 115 -543 113 -106 243 -157
404 -157 154 0 262 40 364 134 l58 54 24 -19 c56 -46 115 -14 215 119 l70 92
29 -35 c55 -67 124 -82 197 -45 22 11 41 20 44 20 3 0 21 -28 41 -62 58 -98
92 -219 135 -470 56 -329 80 -409 156 -523 167 -253 578 -259 799 -12 251 278
276 742 65 1194 l-49 103 16 78 c20 97 9 210 -38 377 -17 64 -30 118 -27 120
4 4 658 96 753 107 l30 3 62 -215 c115 -402 193 -718 269 -1094 32 -162 44
-203 44 -159 0 23 -40 227 -81 410 -16 73 -29 136 -29 140 0 4 17 -21 38 -57
84 -144 153 -223 237 -271 64 -37 155 -40 221 -8 55 26 119 90 156 156 34 61
17 64 204 -30 203 -102 227 -110 279 -103 l44 7 410 1232 c225 678 411 1240
413 1250 2 13 -12 26 -52 46 -65 34 -1582 513 -1592 503 -5 -6 -524 -1618
-575 -1785 -8 -27 -16 -47 -19 -45 -2 3 -29 88 -59 191 -126 429 -250 722
-401 945 l-44 67 35 18 c63 32 40 64 -52 75 -53 6 -63 11 -98 51 -33 37 -37
45 -24 55 31 23 59 70 59 96 0 19 -10 37 -30 53 l-29 25 32 25 c115 89 118
131 5 101 -29 -7 -56 -14 -61 -14 -4 0 6 21 22 47 16 26 27 51 25 55 -9 14
-108 37 -184 41 -41 3 -113 1 -160 -3z m2335 -250 c407 -128 744 -236 749
-240 4 -5 -4 -46 -19 -92 -14 -45 -73 -227 -130 -403 -57 -176 -149 -462 -205
-635 -55 -173 -105 -326 -110 -340 -5 -14 -55 -167 -110 -340 -56 -173 -126
-391 -157 -485 -30 -93 -59 -185 -65 -202 -5 -18 -11 -33 -13 -33 -3 0 -378
180 -381 183 -2 1 8 38 21 82 43 151 58 282 52 470 -3 93 -9 182 -13 198 -6
24 -4 27 20 27 38 0 77 22 119 69 55 61 107 179 107 243 0 49 34 31 44 -23 9
-52 39 -85 106 -119 105 -53 114 -100 49 -241 -62 -136 -76 -262 -33 -315 14
-18 15 -18 7 6 -4 14 -8 64 -8 111 0 81 2 91 45 180 76 158 63 217 -61 278
-70 35 -90 64 -96 143 -5 55 -1 76 21 131 47 118 30 231 -41 265 -18 9 -33 19
-33 22 0 4 -11 24 -25 44 l-26 38 26 20 c57 44 10 130 -92 168 -30 11 -103 25
-162 31 -80 8 -126 19 -186 44 -101 42 -141 50 -160 35 -22 -18 -18 -45 10
-78 l25 -30 -32 -7 c-119 -25 -220 -152 -265 -331 -21 -85 -23 -287 -4 -392
15 -83 75 -285 150 -506 58 -168 64 -226 29 -263 -25 -27 -66 -30 -108 -8 -90
47 -306 385 -383 601 l-26 72 294 916 c161 504 296 924 299 932 3 9 12 14 19
11 6 -2 345 -109 752 -237z m-2005 -237 l33 -37 -49 -16 c-28 -9 -50 -22 -52
-31 -4 -23 58 -50 129 -56 l59 -6 54 -84 c70 -108 152 -268 211 -411 l45 -112
-20 -40 c-45 -89 -155 -135 -304 -128 -75 4 -103 10 -158 36 -76 34 -167 114
-205 179 l-24 42 20 20 c33 33 27 85 -20 182 -54 111 -139 297 -139 304 0 3
14 5 30 5 67 0 108 44 128 136 6 25 14 38 23 36 50 -12 110 -11 149 1 25 8 48
15 51 16 4 1 22 -16 39 -36z m1430 -509 c154 -75 221 -124 254 -183 35 -65 48
-75 96 -68 44 6 52 -4 38 -43 -10 -26 -56 -80 -69 -80 -4 0 -26 16 -49 35 -23
19 -49 35 -58 35 -31 0 -92 51 -92 77 0 15 -17 41 -47 71 -42 41 -80 64 -192
116 -32 15 -65 61 -58 80 11 29 61 17 177 -40z m232 -35 c108 -24 198 -79 198
-123 0 -31 -29 -56 -67 -56 -29 0 -46 10 -96 59 -34 32 -86 73 -114 91 -29 17
-53 34 -53 36 0 8 80 4 132 -7z m-272 -56 c66 -33 150 -111 150 -141 0 -29
-37 -52 -82 -52 -43 0 -76 13 -135 53 -24 15 -43 25 -43 22 0 -16 63 -127 82
-145 12 -11 33 -20 47 -20 25 0 26 -2 28 -70 1 -52 9 -86 28 -127 14 -31 28
-73 31 -94 l6 -37 -57 -7 c-145 -18 -318 11 -422 71 l-43 25 0 72 c1 199 91
391 212 451 69 35 128 34 198 -1z m-1657 -116 c37 -62 128 -143 199 -177 35
-17 69 -30 76 -30 15 0 15 0 -3 -74 -24 -92 -20 -87 -55 -74 -52 18 -144 111
-183 185 -51 99 -90 213 -73 213 8 0 25 -19 39 -43z m-38 -44 c57 -164 138
-273 238 -318 171 -79 384 -8 502 167 l33 50 25 -79 c44 -132 109 -355 105
-358 -6 -7 -750 -106 -770 -103 -18 3 -31 42 -115 352 -96 355 -98 365 -57
366 6 0 24 -35 39 -77z m17 -344 c59 -217 119 -437 134 -489 14 -52 28 -131
31 -176 6 -85 -3 -194 -16 -194 -9 0 -53 111 -77 194 -9 32 -20 100 -24 150
l-7 91 -1 -85 c-2 -128 15 -187 142 -479 123 -283 151 -397 151 -611 -1 -171
-22 -274 -84 -404 -111 -236 -285 -356 -517 -356 -243 0 -392 126 -468 396
-14 49 -42 185 -62 303 -31 187 -63 323 -89 384 -6 14 -2 20 16 24 13 4 59 24
102 45 107 54 193 141 248 253 l42 85 19 -30 c72 -120 147 -316 173 -453 8
-45 19 -160 25 -255 13 -225 26 -252 117 -252 91 0 142 41 185 147 20 52 23
75 23 218 0 140 -3 169 -23 235 -40 126 -76 185 -182 296 -171 180 -297 394
-325 554 -20 111 -19 282 1 373 23 106 82 221 152 297 56 61 175 144 196 137
6 -2 59 -181 118 -398z m742 286 c11 -43 -64 -146 -152 -207 -24 -16 -46 -28
-48 -25 -3 3 -8 30 -11 60 l-6 55 62 27 c57 26 131 91 131 116 0 18 18 0 24
-26z m1226 -30 c24 -22 26 -58 5 -79 -24 -23 -94 -39 -149 -32 -56 6 -76 20
-76 51 0 67 163 112 220 60z m118 -62 c10 -2 12 -12 6 -35 -20 -86 1 -195 48
-260 28 -39 -41 -230 -109 -300 -37 -38 -93 -64 -117 -55 -7 3 -18 31 -25 63
-7 33 -31 118 -54 189 -43 141 -59 273 -38 313 10 19 21 22 67 22 72 0 123 22
136 58 10 27 13 28 42 19 17 -6 37 -12 44 -14z m-1572 -80 c8 -68 3 -80 -43
-92 -51 -15 -183 -14 -183 0 0 12 30 131 35 139 2 3 44 5 94 5 l90 0 7 -52z
m796 -173 c96 -59 302 -94 422 -71 33 6 61 9 63 7 10 -10 83 -285 98 -371 37
-208 19 -502 -42 -685 -78 -238 -241 -350 -400 -276 -89 42 -136 101 -189 240
-26 67 -88 225 -140 353 -51 127 -98 251 -104 275 -6 23 -14 52 -16 63 -3 11
20 -25 51 -80 32 -55 91 -146 131 -202 114 -156 177 -201 245 -173 36 15 59
56 59 106 0 20 -36 141 -79 269 -44 128 -91 280 -105 337 -26 106 -43 228 -33
228 4 0 21 -9 39 -20z m-2507 -145 c205 -31 367 -95 467 -184 147 -132 144
-304 -6 -366 -32 -14 -67 -15 -233 -10 -189 5 -197 6 -225 30 -71 60 -153 10
-147 -88 2 -35 -4 -51 -32 -90 -20 -27 -71 -110 -114 -185 -90 -156 -156 -229
-252 -280 -209 -110 -481 -65 -654 107 -91 91 -131 176 -137 290 -6 102 9 174
55 266 126 253 444 451 820 509 119 19 336 19 458 1z m675 -596 l30 -46 -22
-54 c-52 -128 -156 -242 -270 -298 -107 -52 -110 -51 -149 16 -19 32 -35 61
-37 66 -2 4 8 21 23 39 32 38 97 166 92 181 -2 6 -21 -24 -42 -67 -110 -223
-269 -256 -360 -75 -64 126 -84 260 -45 299 45 45 88 20 195 -115 37 -47 73
-85 79 -85 7 0 17 20 24 44 7 27 24 54 45 73 31 27 43 31 119 35 101 7 165 32
198 78 l24 33 33 -39 c18 -21 47 -60 63 -85z"/>
<path d="M4554 4911 c3 -18 6 -37 6 -42 0 -5 5 -9 10 -9 11 0 3 45 -12 70 -6
10 -8 4 -4 -19z"/>
<path d="M4725 4836 c85 -88 78 -215 -15 -269 -39 -23 -113 -24 -146 -2 -59
39 -80 123 -48 191 23 47 50 64 104 64 96 0 143 -105 73 -160 -33 -25 -69 -26
-83 -1 -16 30 -12 40 16 47 17 4 22 10 15 17 -16 16 -61 -19 -61 -47 0 -58 86
-69 132 -17 34 37 37 83 9 125 -57 86 -173 70 -222 -30 -83 -171 152 -309 268
-157 33 44 42 121 19 175 -19 43 -73 108 -90 108 -7 0 6 -20 29 -44z"/>
<path d="M4858 4843 c-32 -14 -58 -29 -58 -34 0 -8 106 34 119 46 14 15 -11
10 -61 -12z"/>
<path d="M4380 4770 c0 -4 14 -13 31 -19 39 -13 57 -14 44 -2 -16 13 -75 31
-75 21z"/>
<path d="M5014 4746 c-21 -17 -28 -33 -28 -59 0 -58 57 -106 160 -137 l42 -13
4 -63 c3 -56 8 -68 38 -99 46 -48 123 -75 211 -75 83 0 133 20 154 61 21 39
19 48 -20 109 -31 49 -35 62 -35 123 0 81 -10 104 -56 123 -30 12 -39 12 -70
-1 -60 -25 -118 -19 -204 20 -96 43 -155 47 -196 11z"/>
<path d="M4815 4590 c10 -15 65 -42 78 -37 7 2 -7 14 -30 25 -47 24 -57 27
-48 12z"/>
<path d="M4428 4567 c-16 -6 -28 -14 -28 -19 0 -11 2 -10 44 7 57 24 42 35
-16 12z"/>
<path d="M4610 4496 c0 -7 -3 -28 -7 -46 -4 -22 -3 -31 4 -27 13 8 22 87 11
87 -5 0 -8 -6 -8 -14z"/>
<path d="M5236 4177 c-48 -49 -25 -115 51 -143 89 -33 102 -58 53 -104 -37
-35 -38 -54 -2 -90 65 -64 230 -68 281 -6 18 21 17 73 -2 94 -24 26 -21 55 8
98 33 48 32 59 -8 99 -44 44 -117 65 -249 72 -104 6 -107 5 -132 -20z"/>
<path d="M1685 3239 c-63 -37 -109 -105 -121 -178 -14 -89 22 -123 106 -100
25 7 90 13 145 14 63 1 121 8 157 18 161 48 175 177 21 197 -32 4 -80 17 -108
30 -58 26 -170 37 -200 19z m173 -25 c77 -28 142 -76 142 -104 0 -39 -84 -86
-185 -104 l-40 -8 47 48 c26 26 46 50 43 53 -3 2 -27 -16 -53 -42 -26 -25 -67
-55 -92 -66 -50 -23 -120 -27 -138 -9 -30 30 7 153 60 205 62 60 112 66 216
27z"/>
<path d="M1023 3216 c-88 -29 -129 -54 -182 -111 -45 -49 -55 -100 -25 -129
23 -24 83 -19 134 10 l45 25 18 -23 c48 -62 47 -61 94 -55 33 3 54 13 79 38
42 41 45 81 9 123 -29 33 -29 38 -13 84 11 30 11 35 -7 48 -27 20 -68 17 -152
-10z"/>
<path d="M1396 2971 c-11 -16 -42 -39 -70 -52 -59 -28 -79 -64 -64 -117 12
-46 68 -71 104 -47 13 8 31 29 39 45 9 17 33 41 55 55 38 24 45 37 40 80 -6
66 -70 88 -104 36z"/>
<path d="M935 2821 c-124 -56 -184 -193 -119 -271 73 -86 159 -78 187 19 13
45 21 54 70 71 59 21 72 126 22 176 -30 30 -101 32 -160 5z"/>
<path d="M3624 3121 c-27 -12 -114 -126 -130 -170 -13 -40 -4 -93 24 -130 63
-85 193 -84 241 1 13 23 12 30 -14 82 -29 57 -29 57 -12 104 10 26 17 54 17
63 0 39 -79 70 -126 50z"/>
<path d="M3448 2573 c-69 -79 -46 -163 53 -192 25 -8 61 -31 88 -57 73 -71
140 -54 132 34 0 7 -21 34 -44 60 -24 26 -58 68 -76 94 -17 26 -41 54 -53 63
-30 20 -81 19 -100 -2z"/>
<path d="M3846 2539 c-28 -22 -33 -48 -16 -80 15 -27 56 -24 85 6 62 61 0 128
-69 74z"/>
</g>
</svg>
