<?xml version="1.0" standalone="no"?>
<!DOCTYPE svg PUBLIC "-//W3C//DTD SVG 20010904//EN"
 "http://www.w3.org/TR/2001/REC-SVG-20010904/DTD/svg10.dtd">
<svg version="1.0" xmlns="http://www.w3.org/2000/svg"
 width="650.000000pt" height="650.000000pt" viewBox="0 0 650.000000 650.000000"
 preserveAspectRatio="xMidYMid meet">

<g transform="translate(0.000000,650.000000) scale(0.100000,-0.100000)"
fill="#156A31" stroke="none">
<path d="M3278 5521 c-88 -29 -151 -74 -288 -207 -69 -66 -161 -145 -205 -174
-117 -78 -160 -116 -194 -169 -44 -67 -56 -135 -36 -194 l16 -47 -89 -132
c-593 -886 -924 -1868 -863 -2553 49 -546 290 -955 623 -1060 94 -30 253 -34
356 -10 75 18 192 70 258 116 147 101 277 290 349 508 l28 84 32 -70 c47 -101
103 -179 182 -253 111 -105 218 -150 353 -150 247 0 439 164 610 523 94 198
145 361 189 608 27 145 51 371 51 470 l0 77 58 59 c67 69 122 171 153 289 29
107 32 328 6 424 -41 150 -119 264 -209 304 -33 15 -56 35 -80 71 -69 103
-189 167 -318 169 -62 1 -81 5 -104 23 -58 46 -149 39 -240 -20 -35 -22 -59
-30 -83 -28 -52 4 -120 -34 -143 -80 -11 -21 -20 -52 -20 -69 0 -20 -5 -30
-15 -30 -9 0 -33 -9 -55 -20 -22 -11 -51 -20 -65 -20 l-25 0 35 45 c98 129 22
285 -140 285 -30 0 -55 2 -55 5 0 3 9 23 20 44 l19 39 81 7 c44 4 80 11 80 16
0 5 -6 9 -14 9 -15 0 -66 37 -66 48 0 4 37 8 83 8 54 1 95 7 122 19 l40 18
-42 9 c-55 12 -93 55 -93 107 0 24 16 71 46 132 106 215 135 373 99 527 -28
117 -85 191 -180 233 -70 31 -190 36 -267 10z m-384 -497 c29 -28 19 -88 -28
-182 -105 -211 -80 -317 103 -433 24 -16 46 -27 48 -25 2 1 -12 29 -32 61 -29
49 -46 105 -31 105 2 0 28 -16 57 -36 91 -62 257 -124 331 -124 34 0 34 -6 6
-65 -16 -32 -35 -53 -64 -69 l-43 -24 -23 25 c-30 34 -94 63 -138 63 -44 0
-125 -37 -173 -80 -34 -30 -39 -31 -71 -20 -72 24 -162 -28 -252 -145 -92
-120 -151 -276 -175 -468 l-12 -90 -58 6 c-70 6 -149 41 -207 92 -48 42 -102
116 -102 139 0 25 159 337 256 503 105 179 292 462 369 558 91 113 195 225
210 225 7 0 21 -7 29 -16z m276 -746 c61 -42 60 -49 -14 -118 -81 -76 -185
-229 -232 -342 -34 -79 -74 -222 -74 -262 0 -36 11 -8 26 63 41 197 145 382
298 528 128 123 218 156 306 111 55 -28 90 -78 90 -129 0 -77 -37 -128 -145
-202 -123 -84 -215 -188 -278 -313 -47 -92 -66 -168 -73 -284 -8 -125 10 -236
91 -577 97 -409 117 -566 96 -787 -40 -414 -188 -715 -433 -873 -77 -50 -200
-99 -275 -108 l-48 -7 -33 46 c-82 113 -122 243 -122 391 0 149 46 305 90 305
57 0 126 67 160 157 18 46 24 85 28 193 6 179 -11 293 -98 650 -78 322 -96
414 -111 585 -16 177 4 384 50 518 84 243 270 431 372 377 18 -10 17 -14 -20
-63 -47 -62 -109 -185 -144 -284 -29 -79 -61 -234 -54 -261 2 -9 7 1 11 23 25
149 59 257 116 370 107 213 213 315 331 315 42 0 64 -6 89 -22z m974 -59 l27
-21 -48 -23 c-92 -43 -148 -124 -141 -204 3 -25 8 -54 12 -63 7 -15 3 -18 -24
-18 -24 0 -46 13 -96 58 -61 54 -64 59 -58 92 21 117 123 197 250 199 38 1 58
-5 78 -20z m218 -43 c59 -18 83 -31 132 -69 38 -30 96 -102 96 -119 0 -4 -16
-8 -35 -8 -20 0 -52 -7 -73 -16 -54 -24 -110 -34 -115 -20 -2 6 -19 -6 -39
-26 -71 -76 -174 -98 -258 -55 -82 41 -99 121 -45 214 55 93 208 138 337 99z
m-537 -68 c-14 -29 -25 -66 -25 -82 0 -24 -3 -28 -22 -22 -13 3 -38 6 -55 6
-31 0 -33 2 -33 36 0 29 8 44 39 75 32 33 45 39 79 39 l41 0 -24 -52z m30
-203 c61 -35 117 -123 145 -227 20 -73 22 -100 18 -223 -4 -123 -9 -151 -36
-230 -110 -326 -338 -444 -500 -259 -64 71 -111 224 -112 360 0 62 24 206 46
271 56 166 164 299 272 334 43 14 120 2 167 -26z m844 -39 c173 -109 219 -476
93 -734 -34 -69 -103 -147 -153 -172 -80 -41 -190 -15 -249 60 -66 83 -110
230 -110 363 0 88 33 234 69 309 63 133 168 214 263 204 26 -3 65 -16 87 -30z
m-2605 -234 c61 -65 163 -118 245 -128 l58 -6 6 -142 c8 -179 31 -311 106
-607 70 -271 97 -418 106 -574 18 -293 -61 -445 -232 -445 -252 1 -406 357
-390 900 4 104 13 218 22 260 18 88 18 87 6 74 -42 -42 -59 -489 -27 -694 55
-347 174 -531 359 -556 l45 -6 -20 -44 c-82 -186 -55 -445 66 -627 20 -30 36
-58 36 -62 0 -14 -163 3 -230 24 -316 99 -550 481 -611 996 -15 125 -6 452 16
590 52 326 150 655 307 1028 51 119 52 120 67 96 9 -13 38 -48 65 -77z m1084
-647 c2 -1 12 -63 22 -136 62 -441 178 -758 335 -915 25 -25 75 -59 111 -76
58 -27 73 -30 130 -25 l64 5 0 -113 c0 -130 20 -211 70 -288 33 -49 99 -104
138 -114 31 -7 28 -16 -15 -40 -80 -43 -138 -55 -252 -51 -100 3 -113 6 -182
40 -135 67 -240 183 -320 352 l-40 87 18 97 c14 74 18 146 18 307 0 239 -4
267 -90 620 -30 127 -57 238 -59 248 -4 16 0 18 22 12 15 -4 28 -8 30 -10z
m802 -7 c13 -32 37 -208 51 -373 18 -225 -4 -490 -50 -597 -93 -217 -339 -214
-495 6 -86 121 -144 260 -201 482 -41 158 -97 484 -84 484 2 0 46 -13 96 -29
75 -23 103 -38 144 -75 127 -115 272 -93 409 62 46 51 60 62 88 62 24 0 35 -6
42 -22z m655 -210 c-10 -165 -42 -406 -71 -538 -83 -375 -273 -758 -440 -885
l-34 -26 -43 19 c-131 58 -211 244 -192 446 5 61 10 76 25 81 32 10 98 94 121
154 41 108 52 208 47 443 l-4 217 25 -19 c67 -47 174 -49 269 -5 75 35 118 70
167 140 42 58 67 75 129 84 4 0 5 -50 1 -111z"/>
<path d="M3722 3583 c-43 -64 -81 -228 -68 -298 9 -45 46 -85 80 -85 36 0 80
42 106 102 41 93 28 238 -24 291 -27 27 -71 22 -94 -10z"/>
<path d="M4571 3603 c-41 -42 -75 -160 -76 -260 0 -73 3 -84 24 -107 46 -48
101 -29 148 51 21 37 28 62 31 127 5 101 -9 157 -49 190 -38 32 -44 32 -78 -1z"/>
</g>
</svg>
