<?xml version="1.0" standalone="no"?>
<!DOCTYPE svg PUBLIC "-//W3C//DTD SVG 20010904//EN"
 "http://www.w3.org/TR/2001/REC-SVG-20010904/DTD/svg10.dtd">
<svg version="1.0" xmlns="http://www.w3.org/2000/svg"
 width="650.000000pt" height="650.000000pt" viewBox="0 0 650.000000 650.000000"
 preserveAspectRatio="xMidYMid meet">

<g transform="translate(0.000000,650.000000) scale(0.100000,-0.100000)"
fill="#156A31" stroke="none">
<path d="M5000 5269 c-256 -37 -798 -116 -1205 -174 -407 -59 -746 -108 -752
-110 -9 -3 1 -41 31 -127 40 -111 375 -1028 391 -1070 6 -16 26 -18 206 -18
l198 0 5 -32 c54 -378 58 -468 26 -592 -25 -99 -61 -165 -120 -220 -62 -58
-114 -83 -199 -98 -59 -10 -81 -9 -147 5 -173 38 -267 132 -455 460 -57 99
-509 998 -509 1012 0 2 17 9 38 14 20 6 59 24 85 41 36 22 47 36 47 55 0 44
-40 51 -143 25 -100 -25 -97 -26 -134 54 -13 28 -14 41 -6 43 7 3 27 14 45 27
118 79 106 309 -18 332 -24 4 -46 0 -78 -16 l-45 -21 -31 34 c-16 19 -62 51
-102 72 -89 47 -182 58 -242 30 -79 -37 -111 -157 -66 -246 12 -22 27 -42 35
-45 10 -4 3 -21 -29 -64 -52 -70 -70 -129 -64 -209 7 -105 82 -181 178 -181
45 0 72 11 107 43 13 11 25 19 27 16 2 -2 13 -33 24 -69 75 -231 69 -483 -17
-705 -85 -221 -210 -362 -549 -625 -299 -232 -407 -339 -501 -498 -201 -338
-117 -695 201 -857 112 -58 195 -77 360 -82 136 -5 241 4 378 34 22 5 21 2
-12 -27 -60 -50 -46 -96 35 -116 l28 -6 -33 -21 c-46 -28 -58 -47 -55 -87 2
-31 8 -38 50 -59 177 -87 444 20 549 222 31 58 33 69 33 162 0 94 -2 105 -34
170 -40 82 -124 170 -193 204 -42 20 -48 26 -57 69 -30 142 -41 239 -51 447
-6 127 -13 249 -16 272 l-5 42 -37 -6 c-117 -17 -284 -71 -379 -122 l-53 -29
-20 38 c-47 93 -83 319 -53 338 40 25 185 158 236 217 99 114 188 272 219 388
14 53 20 57 35 25 6 -13 31 -48 56 -79 149 -183 400 -210 542 -58 25 26 45 55
45 64 0 8 5 15 10 15 6 0 10 -4 10 -8 0 -16 203 -379 256 -458 30 -45 79 -108
109 -142 47 -51 55 -66 55 -99 -1 -84 -44 -263 -66 -270 -17 -6 -64 87 -85
169 -22 88 -46 154 -54 147 -2 -3 7 -41 21 -84 61 -197 72 -375 41 -655 -25
-225 -32 -370 -18 -370 7 0 11 26 11 78 0 44 9 173 21 288 14 135 20 252 17
331 -2 68 -1 120 2 115 3 -4 26 -33 50 -65 194 -259 554 -358 819 -226 76 38
174 141 223 234 82 158 119 329 153 709 9 99 23 195 31 214 8 19 40 62 72 96
31 34 74 94 95 134 l38 72 479 0 c300 0 481 4 485 10 3 5 -3 184 -14 397 -11
214 -25 483 -31 598 -6 116 -15 279 -20 364 -6 85 -10 162 -10 173 0 11 -7 18
-17 17 -10 -1 -227 -32 -483 -70z m393 -41 c26 -31 22 -82 -9 -107 -35 -28
-69 -26 -99 4 -26 26 -32 63 -14 96 22 42 89 46 122 7z m111 -270 c9 -154 33
-610 47 -906 7 -133 10 -244 8 -246 -2 -2 -311 -6 -687 -10 l-683 -7 -21 48
c-17 38 -22 72 -24 162 -2 62 -6 116 -9 119 -3 3 -5 -13 -5 -36 0 -23 -11 -81
-25 -128 -31 -108 -31 -132 0 -175 68 -95 79 -114 85 -152 l5 -42 20 33 c23
38 78 78 126 92 18 6 68 14 111 20 42 5 89 12 104 16 l27 7 -29 -53 c-16 -29
-55 -81 -86 -115 -32 -35 -65 -78 -73 -98 -8 -19 -26 -143 -40 -274 -29 -274
-37 -323 -71 -453 -61 -234 -189 -397 -357 -454 -232 -78 -490 -6 -682 190
l-64 66 15 30 c25 48 54 177 54 240 0 32 2 58 5 58 2 0 31 -13 63 -30 220
-111 462 -32 563 185 64 135 71 279 29 544 -29 178 -25 367 9 454 26 67 84
132 125 143 25 6 34 2 58 -25 32 -36 38 -27 7 13 -23 30 -56 33 -98 11 -72
-37 -116 -133 -133 -291 l-11 -104 -193 0 -192 0 -10 28 c-5 15 -84 230 -176
478 -91 248 -166 456 -166 462 0 6 19 13 43 16 102 12 443 58 562 76 72 11
204 29 295 40 91 11 183 22 205 25 22 3 83 9 135 15 164 17 731 88 1030 130
108 15 97 25 104 -102z m-3135 -507 c20 -38 20 -39 1 -56 -11 -10 -20 -26 -20
-36 0 -23 37 -49 71 -49 25 0 37 -21 204 -356 170 -344 176 -357 164 -387 -51
-123 -224 -189 -374 -141 -82 25 -162 88 -219 172 l-49 71 13 116 c7 67 10
149 6 193 -8 89 -40 236 -67 303 -16 42 -16 52 -5 97 23 84 31 89 73 42 14
-16 36 -30 47 -30 31 0 85 36 104 70 9 16 20 30 24 30 4 0 17 -17 27 -39z
m-688 -1730 c17 -47 32 -93 35 -101 3 -9 -7 -22 -28 -35 -67 -39 -173 -158
-212 -235 -65 -134 -84 -304 -41 -393 44 -93 170 -109 351 -45 158 56 241 71
354 66 82 -4 108 -10 164 -36 120 -56 204 -155 241 -286 46 -159 -53 -345
-233 -434 -74 -36 -79 -37 -186 -37 -94 0 -116 3 -146 20 -71 42 -41 108 64
141 32 10 93 17 161 18 107 2 110 3 113 25 2 14 -6 33 -22 50 -29 31 -56 90
-56 126 0 14 -3 25 -7 25 -3 0 -56 -13 -117 -29 -218 -59 -329 -75 -491 -75
-121 1 -165 5 -228 22 -179 49 -327 159 -398 297 -51 98 -63 158 -56 279 15
270 149 462 532 763 l160 126 8 -83 c4 -50 19 -118 38 -169z m410 -119 c27
-67 69 -188 95 -269 43 -141 90 -340 82 -349 -3 -2 -41 2 -85 8 -104 15 -229
-4 -402 -62 -183 -62 -267 -56 -322 22 -18 25 -24 49 -27 112 -14 285 176 516
528 641 36 13 69 22 74 21 5 -1 30 -57 57 -124z"/>
<path d="M5315 4983 c-45 -6 -312 -43 -380 -53 -33 -5 -98 -16 -145 -25 -47
-8 -91 -15 -98 -15 -9 0 -11 -13 -7 -47 3 -27 26 -246 51 -488 25 -242 48
-442 50 -444 4 -5 675 -2 683 3 3 2 3 89 0 193 -12 360 -29 758 -35 821 l-6
62 -41 -1 c-23 -1 -55 -4 -72 -6z m-182 -84 c12 -93 -30 -238 -92 -317 -65
-82 -169 -147 -254 -158 l-45 -6 -6 58 c-4 33 -9 71 -11 85 -3 22 4 32 38 57
23 16 56 54 74 83 30 50 63 150 63 190 0 17 42 30 135 42 89 12 92 10 98 -34z
m306 -363 c6 -143 9 -261 7 -264 -2 -2 -39 2 -81 8 -66 10 -80 10 -92 -3 -10
-9 -25 -79 -42 -186 l-26 -171 -173 0 -173 0 127 248 c152 296 250 474 353
642 l76 125 7 -70 c4 -38 12 -187 17 -329z"/>
<path d="M4415 4829 c-38 -4 -117 -13 -175 -19 -58 -6 -143 -15 -190 -20 -47
-5 -233 -26 -415 -45 -181 -20 -331 -38 -333 -40 -5 -5 69 -318 77 -327 3 -3
101 4 216 18 116 13 386 44 602 68 216 24 396 47 400 49 5 3 3 65 -4 139 -6
73 -12 145 -12 161 -1 26 -3 27 -48 26 -27 -1 -79 -5 -118 -10z"/>
<path d="M3898 4356 c-196 -17 -360 -35 -365 -39 -4 -5 15 -6 42 -3 28 3 79 8
115 11 36 3 172 14 303 25 132 11 248 20 258 20 10 0 19 5 19 10 0 6 -3 9 -7
9 -5 -1 -169 -16 -365 -33z"/>
<path d="M4365 4343 c-48 -25 -72 -52 -96 -106 -57 -133 -3 -312 113 -373 35
-18 111 -18 147 0 132 69 157 293 46 424 -55 66 -145 90 -210 55z"/>
<path d="M3420 4269 c0 -7 22 -84 49 -173 27 -88 55 -185 62 -213 7 -29 16
-53 20 -53 11 0 -20 122 -88 338 -32 104 -43 129 -43 101z"/>
<path d="M2595 3046 c-51 -22 -93 -65 -122 -124 -24 -50 -27 -69 -28 -157 0
-138 26 -207 109 -291 68 -67 125 -91 196 -81 266 35 263 541 -4 652 -43 18
-111 19 -151 1z"/>
</g>
</svg>
