<svg height='100px' width='100px'  fill="#000000" xmlns="http://www.w3.org/2000/svg" data-name="Layer 1" viewBox="0 0 100 100" x="0px" y="0px"><title>Artboard 1 copy 14</title><path d="M29.88,80.67A1.5,1.5,0,0,1,29,77.94l40.52-28.7L29,20.54a1.5,1.5,0,1,1,1.73-2.44L73,48a1.49,1.49,0,0,1,0,2.45L30.74,80.39A1.47,1.47,0,0,1,29.88,80.67Z"></path><path d="M8.88,80.67A1.5,1.5,0,0,1,8,77.94l40.52-28.7L8,20.54A1.5,1.5,0,1,1,9.74,18.1L52,48a1.49,1.49,0,0,1,0,2.45L9.74,80.39A1.47,1.47,0,0,1,8.88,80.67Z"></path><path d="M49.88,80.67A1.5,1.5,0,0,1,49,77.94l40.52-28.7L49,20.54a1.5,1.5,0,1,1,1.73-2.44L93,48a1.49,1.49,0,0,1,0,2.45L50.74,80.39A1.47,1.47,0,0,1,49.88,80.67Z"></path></svg>