<svg height='100px' width='100px'  fill="#000000" xmlns="http://www.w3.org/2000/svg" data-name="Layer 1" viewBox="0 0 100 100" x="0px" y="0px"><title>Artboard 1 copy 3</title><path d="M70.28,22.12a1.47,1.47,0,0,1,1.22.64,1.5,1.5,0,0,1-.35,2.09L30.62,53.55l40.53,28.7a1.5,1.5,0,1,1-1.74,2.44L27.16,54.77a1.51,1.51,0,0,1,0-2.45L69.41,22.4A1.5,1.5,0,0,1,70.28,22.12Z"></path><path d="M91.28,22.12a1.47,1.47,0,0,1,1.22.64,1.5,1.5,0,0,1-.35,2.09L51.62,53.55l40.53,28.7a1.5,1.5,0,1,1-1.74,2.44L48.16,54.77a1.51,1.51,0,0,1,0-2.45L90.41,22.4A1.5,1.5,0,0,1,91.28,22.12Z"></path><path d="M50.28,22.12a1.47,1.47,0,0,1,1.22.64,1.5,1.5,0,0,1-.35,2.09L10.62,53.55l40.53,28.7a1.5,1.5,0,0,1-1.74,2.44L7.16,54.77a1.51,1.51,0,0,1,0-2.45L49.41,22.4A1.5,1.5,0,0,1,50.28,22.12Z"></path></svg>