<svg xmlns="http://www.w3.org/2000/svg" xmlns:xlink="http://www.w3.org/1999/xlink" width="100" height="100" viewBox="0 0 100 100"><g transform="translate(50 50) scale(0.69 0.69) rotate(-90) translate(-50 -50)" style="fill:#000000"><svg fill="#000000" xmlns="http://www.w3.org/2000/svg" xmlns:xlink="http://www.w3.org/1999/xlink" version="1.1" x="0px" y="0px" viewBox="0 0 90 90" enable-background="new 0 0 90 90" xml:space="preserve"><path d="M44.959,36.225c0.004,0,0.008,0,0.013,0c0.002,0,0.004,0,0.006,0c2.653,0,4.809,2.154,4.809,4.811  c0,2.656-2.156,4.812-4.815,4.815c-2.659-0.008-4.812-2.159-4.812-4.815C40.156,38.381,42.306,36.225,44.959,36.225 M44.959,31.791  c-2.467,0-4.787,0.962-6.531,2.709c-1.745,1.748-2.705,4.071-2.701,6.542c0,5.078,4.142,9.228,9.232,9.242  c5.116-0.007,9.262-4.156,9.262-9.249c0-5.098-4.146-9.245-9.243-9.245H44.959L44.959,31.791z"></path><path d="M69.678,61.171L61.999,53.5c0.79-3.845,1.226-8.041,1.226-12.464c0-18.354-16.096-32.858-16.781-33.466l-1.472-1.307  L43.5,7.569c-0.686,0.608-16.782,15.112-16.782,33.466c0,4.44,0.439,8.652,1.235,12.508l-7.631,7.627  c-0.416,0.416-0.65,0.979-0.649,1.567l0.003,17.018c0,1.224,0.992,2.216,2.216,2.216h9.261c0.692,0,1.344-0.323,1.764-0.874  l6.005-7.893c1.886,1.197,3.919,1.854,6.05,1.854c2.146,0,4.193-0.665,6.091-1.879l6.023,7.918c0.419,0.551,1.071,0.874,1.764,0.874  h9.262c1.224,0,2.216-0.992,2.216-2.216V62.738C70.327,62.15,70.094,61.586,69.678,61.171z M30.054,77.54h-5.947l-0.002-13.884  l5.134-5.132c1.536,4.866,3.704,8.919,6.31,11.793L30.054,77.54z M40.307,68.818c-0.127-0.181-0.274-0.35-0.459-0.49  c-0.104-0.079-0.214-0.142-0.326-0.199c-4.872-4.629-8.37-15.171-8.37-27.093c0-13.271,9.989-24.787,13.822-28.716  c3.834,3.921,13.817,15.411,13.817,28.716c0,12.004-3.545,22.612-8.469,27.191c-0.055,0.034-0.113,0.062-0.166,0.102  c-0.142,0.107-0.261,0.231-0.369,0.363c-1.508,1.244-3.131,1.934-4.815,1.934C43.344,70.625,41.771,69.984,40.307,68.818z   M65.896,77.54h-5.947l-5.521-7.258c2.599-2.881,4.759-6.936,6.289-11.799l5.179,5.174V77.54z"></path><path fill="#000000" stroke="#000000" stroke-width="4.4334" stroke-miterlimit="10" d="M54.025,67.285"></path></svg></g></svg>